<svg width="44" height="32" viewBox="0 0 44 32" fill="none" xmlns="http://www.w3.org/2000/svg">
<path d="M43.875 15.8633C43.875 15.7559 43.875 15.6338 43.8701 15.4922C43.8652 15.0967 43.8555 14.6524 43.8457 14.1787C43.8066 12.8164 43.7383 11.459 43.6309 10.1797C43.4844 8.417 43.2695 6.94727 42.9766 5.84375C42.6674 4.69214 42.0614 3.64184 41.2191 2.79784C40.3768 1.95383 39.3277 1.34568 38.1768 1.03418C36.7949 0.663086 34.0898 0.433594 30.2812 0.291992C28.4697 0.223633 26.5312 0.179687 24.5928 0.155273C23.9141 0.145508 23.2842 0.140625 22.7178 0.135742H21.2822C20.7158 0.140625 20.0859 0.145508 19.4072 0.155273C17.4688 0.179687 15.5303 0.223633 13.7188 0.291992C9.91016 0.438477 7.2002 0.667969 5.82324 1.03418C4.67188 1.34492 3.62241 1.95281 2.78 2.79693C1.93759 3.64106 1.33184 4.69176 1.02344 5.84375C0.725586 6.94727 0.515625 8.417 0.369141 10.1797C0.261719 11.459 0.193359 12.8164 0.154297 14.1787C0.139648 14.6524 0.134766 15.0967 0.129883 15.4922C0.129883 15.6338 0.125 15.7559 0.125 15.8633V16.1367C0.125 16.2442 0.125 16.3662 0.129883 16.5078C0.134766 16.9033 0.144531 17.3477 0.154297 17.8213C0.193359 19.1836 0.261719 20.541 0.369141 21.8203C0.515625 23.583 0.730469 25.0528 1.02344 26.1563C1.64844 28.4951 3.48437 30.3408 5.82324 30.9658C7.2002 31.3369 9.91016 31.5664 13.7188 31.708C15.5303 31.7764 17.4688 31.8203 19.4072 31.8448C20.0859 31.8545 20.7158 31.8594 21.2822 31.8643H22.7178C23.2842 31.8594 23.9141 31.8545 24.5928 31.8448C26.5312 31.8203 28.4697 31.7764 30.2812 31.708C34.0898 31.5616 36.7998 31.3321 38.1768 30.9658C40.5156 30.3408 42.3516 28.5 42.9766 26.1563C43.2744 25.0528 43.4844 23.583 43.6309 21.8203C43.7383 20.541 43.8066 19.1836 43.8457 17.8213C43.8604 17.3477 43.8652 16.9033 43.8701 16.5078C43.8701 16.3662 43.875 16.2442 43.875 16.1367V15.8633ZM40.3594 16.1172C40.3594 16.2197 40.3594 16.332 40.3545 16.4639C40.3496 16.8447 40.3398 17.2647 40.3301 17.7188C40.2959 19.0176 40.2275 20.3164 40.125 21.5225C39.9932 23.0947 39.8076 24.3838 39.5781 25.2481C39.2754 26.376 38.3867 27.2696 37.2637 27.5674C36.2383 27.8408 33.6553 28.0606 30.1445 28.1924C28.3672 28.2608 26.4531 28.3047 24.5439 28.3291C23.875 28.3389 23.2549 28.3438 22.6982 28.3438H21.3018L19.4561 28.3291C17.5469 28.3047 15.6377 28.2608 13.8555 28.1924C10.3447 28.0557 7.75684 27.8408 6.73633 27.5674C5.61328 27.2647 4.72461 26.376 4.42188 25.2481C4.19238 24.3838 4.00684 23.0947 3.875 21.5225C3.77246 20.3164 3.70898 19.0176 3.66992 17.7188C3.65527 17.2647 3.65039 16.8399 3.64551 16.4639C3.64551 16.332 3.64062 16.2149 3.64062 16.1172V15.8828C3.64062 15.7803 3.64063 15.668 3.64551 15.5361C3.65039 15.1553 3.66016 14.7354 3.66992 14.2813C3.7041 12.9824 3.77246 11.6836 3.875 10.4775C4.00684 8.90528 4.19238 7.61622 4.42188 6.75196C4.72461 5.62403 5.61328 4.73047 6.73633 4.43262C7.76172 4.15918 10.3447 3.93946 13.8555 3.80762C15.6328 3.73926 17.5469 3.69532 19.4561 3.6709C20.125 3.66114 20.7451 3.65625 21.3018 3.65625H22.6982L24.5439 3.6709C26.4531 3.69532 28.3623 3.73926 30.1445 3.80762C33.6553 3.94434 36.2432 4.15918 37.2637 4.43262C38.3867 4.73536 39.2754 5.62403 39.5781 6.75196C39.8076 7.61622 39.9932 8.90528 40.125 10.4775C40.2275 11.6836 40.291 12.9824 40.3301 14.2813C40.3447 14.7354 40.3496 15.1602 40.3545 15.5361C40.3545 15.668 40.3594 15.7852 40.3594 15.8828V16.1172ZM17.6543 22.543L28.9824 15.9512L17.6543 9.45704V22.543Z" fill="#1C1825"/>
</svg>
